PathFileType	4	(X/Y/Z)	7_2_29_p1_0-135.trc
DataRate	CameraRate	NumFrames	NumMarkers	Units	OrigDataRate	OrigDataStartFrame	OrigNumFrames
60.0	60.0	5	27	m	60.0	68	136
Frame#	Time	RHip			RKnee			RAnkle			RBigToe			RSmallToe			RHeel			LHip			LKnee			LAnkle			LBigToe			LSmallToe			LHeel			Neck			Head			Nose			RShoulder			RElbow			RWrist			RThumb			RIndex			RPinky			LShoulder			LElbow			LWrist			LThumb			LIndex			LPinky			
		X1	Y1	Z1	X2	Y2	Z2	X3	Y3	Z3	X4	Y4	Z4	X5	Y5	Z5	X6	Y6	Z6	X7	Y7	Z7	X8	Y8	Z8	X9	Y9	Z9	X10	Y10	Z10	X11	Y11	Z11	X12	Y12	Z12	X13	Y13	Z13	X14	Y14	Z14	X15	Y15	Z15	X16	Y16	Z16	X17	Y17	Z17	X18	Y18	Z18	X19	Y19	Z19	X20	Y20	Z20	X21	Y21	Z21	X22	Y22	Z22	X23	Y23	Z23	X24	Y24	Z24	X25	Y25	Z25	X26	Y26	Z26	X27	Y27	Z27	
68	1.1333333333333333	0.283430629605899	0.3222167980411973	1.1823817856765555	0.27857913709787857	0.2615300104302832	1.5835238248477481	0.28081717298832176	0.2924480601949839	2.0478663059484967	0.24779833271258828	0.08432373840876582	1.9953115922068276	0.30854417110634746	0.09588830066346792	1.980805175016183	0.2632058250792346	0.33743192948277406	2.1314340552177913	0.06382071724128059	0.31299112136836643	1.1775205583132253	0.09498969225987124	0.28428195683866264	1.608461341744803	0.1108301726045759	0.2564605101712835	2.01314029481525	0.10383961545323506	0.061052513126144424	1.9793267915154846	0.05934738637302171	0.10608386447390727	1.9748407972995004	0.12101197688980515	0.30727152621856996	2.07850424557145	0.20488671605140082	0.2527962678962631	0.6435402968145801	0.229808610844849	0.21962061924053503	0.39057835829517784	0.229876119109823	0.0996924346115863	0.4854693447554689	0.3623837023170811	0.24060736142401418	0.7142922596114705	0.42410947988590875	0.30186838426218054	0.9656636497083771	0.35504868947544777	0.13927916956213304	1.0922109124736146	0.24473891272462522	0.08961054034835851	1.1493276812589697	0.25644241289190167	0.09229457641678757	1.1651196040414864	0.2973044285547062	0.13499571824484727	1.1942877680007675	0.038178265322159906	0.2344900531688542	0.7035441048559277	-0.04167597252903918	0.3119448888798396	0.9612223945559749	0.03096862934066251	0.1492785236526273	1.135889313887728	0.10264829207303038	0.08267306916240243	1.161513855347287	0.09280072124635709	0.07452342334058978	1.2057389875192641	0.06885185546427787	0.10589731479228863	1.225678997695188
69	1.15	0.28647196537246705	0.3346106730216885	1.1862370162940945	0.2795293417057217	0.26191616830076936	1.5781412953868712	0.27617440027264634	0.2905954221687598	2.0470046152946897	0.24879274324522008	0.0842027702626856	1.990621865811118	0.30869124730656833	0.09624119044081292	1.9807772056943862	0.2631887215443358	0.3377013325392438	2.1323566333053	0.06300693291614151	0.31733068361637073	1.1689667507495294	0.09072701802181526	0.28234475717238383	1.6075194061637756	0.1108271358980082	0.2566156148221556	2.013103047813735	0.10384627135657447	0.06113892183187683	1.9791201796249511	0.054676105310991534	0.11846030411472766	1.9846637367959667	0.11809982846872077	0.29723127921986225	2.0710727807022957	0.21322511717205525	0.2276783206564075	0.64416341268291	0.24446557389729226	0.1873451011551902	0.3898909789790717	0.24163497053133992	0.07697728078899202	0.49745884167261595	0.3631261096120541	0.23919641425883903	0.7236686019474413	0.41975572809089073	0.31492043624412536	0.9709686793396267	0.3627898931104562	0.15022198857514665	1.0972149946058019	0.2501884674404257	0.0975839874054808	1.1572556926654611	0.264302553159587	0.10374527730332858	1.1711341897732879	0.29807541548521166	0.13464599979745615	1.1976567132883922	0.0476006972721137	0.2114982627690888	0.6995621336293771	-0.041096482272200016	0.31142711653159094	0.9692447892270306	0.018882994464262986	0.15682012152270944	1.143889976957785	0.0944160282507494	0.09182816796772329	1.1717654782781781	0.08579779975438552	0.07525763345329467	1.2064032138442071	0.06374986800925292	0.11578167609318582	1.2301278343914588
70	1.1666666666666667	0.28366793167873094	0.3228559555176116	1.1897606568440853	0.27483130231228897	0.25997134493819424	1.581498470641563	0.27722473585648594	0.29116801618289384	2.0529541957685282	0.24972867846550104	0.08469559681644806	1.995251041959913	0.308590454117119	0.09637475363665429	1.9807169624745513	0.26387018246361366	0.3380734460260259	2.1338407152512726	0.06015537244405193	0.31280178026025446	1.1811032504796926	0.08575230452245139	0.27988857988571336	1.6106541024450685	0.10986363005949332	0.2558645561795986	2.007531666723123	0.10664127355758896	0.07146168055965223	1.9870671122047947	0.05729829430494086	0.12893689589614607	1.9926483094990977	0.11731380591502368	0.29615542875548817	2.066242650830027	0.22470727424219197	0.20529610473386023	0.6401954615366148	0.2554435818506767	0.15244796858893753	0.3899611269821709	0.2396458730366548	0.06610846350140435	0.5077794425363266	0.3596634350541248	0.22969912131679596	0.7244130896888318	0.4168621678425147	0.3288199787996627	0.9820660481027355	0.36666529600896114	0.15171926100440378	1.098334278488212	0.2562852201608667	0.09492048307514114	1.1557841114437348	0.2653186111726647	0.1042509099882989	1.171394345764472	0.3049563436127518	0.13080659150735838	1.1974675410778595	0.05234648023977255	0.19989826148938183	0.699695657206138	-0.045739335470591724	0.32229331122577454	0.9772459241946777	0.00907529042982598	0.1797679791746226	1.1548801828757143	0.08078189600948146	0.1105849074255828	1.189826283988223	0.07264541588252767	0.09579824020563296	1.2187929683561134	0.056328799131394394	0.10503630870491759	1.2294172257635596
71	1.1833333333333333	0.28406504030094004	0.3232139953821395	1.1754419404319532	0.2752806165424004	0.2596572221056514	1.5757442625140385	0.2734580494305692	0.27953076938906984	2.0441985417932584	0.24629552027895354	0.07498925099627123	1.9878805832569129	0.3087298449493676	0.09633392503976268	1.9810177792386565	0.2639737990704852	0.3376626102075257	2.133173154889031	0.06403910256249686	0.3146173547449548	1.1714581204950063	0.0862532334125625	0.2800494333577812	1.6039867752575638	0.11029041341768472	0.25374933214604894	2.010798646791248	0.10674789151057393	0.07122702147689641	1.9863670752155853	0.055303875154756266	0.11661294812683294	1.9884115318838083	0.11727783655580733	0.29590570365471713	2.0660049079255063	0.22610913766291552	0.2041984687470643	0.646587923856741	0.2643402145684126	0.13438818685457954	0.39733721381820447	0.25053253961245814	0.06506336425409476	0.5142598902614308	0.3634942720781204	0.21694385633540064	0.7239080429716017	0.4178529043879291	0.3272388059199488	0.9904644130985155	0.3706437757142827	0.15302112277083083	1.0990906055020342	0.266256896447563	0.10754665078288135	1.1662316910968222	0.2843218156766713	0.10752353738218505	1.1776969291544788	0.3130015484968731	0.14280443779210217	1.2017487772828417	0.053100855861547044	0.1981246509743188	0.7129449850745544	-0.048992972144998315	0.31871264108027636	0.9839415753786775	0.0019215593465082537	0.167087377912357	1.1496173207309373	0.07949360994617681	0.11079326113547638	1.2017468450017754	0.0693148145048123	0.10647431412930161	1.2280996281030274	0.04909949384692477	0.11424656699948124	1.2390280329295418
72	1.2	0.2838733180386921	0.32306128620228935	1.1743161887532363	0.2711141138396807	0.25717651484802356	1.5740353948407424	0.27429801606828336	0.2796910488960078	2.049366494852399	0.24644690007949804	0.06738151746718389	1.9864526134715728	0.3096927727307928	0.09605937504121045	1.985524171757531	0.26375893158817343	0.33800230754033267	2.1349191480714946	0.06373309476050533	0.31490045116349163	1.1696941508073588	0.08673503493399644	0.2806710280570184	1.592834047408158	0.11133891642923455	0.25469669317291427	2.016555425020777	0.10646846939109211	0.07039197166775651	1.9855315065663517	0.057936091006838934	0.1263730841157678	1.9964301611129145	0.11791488122405186	0.297135456280489	2.069944546192662	0.22650866184798663	0.20154597728191265	0.6604710213409166	0.2725291635472179	0.1221032888894156	0.416216486095278	0.2552356570477603	0.04550212780073358	0.528761519708011	0.3649060386896049	0.21301251844223346	0.7402112906385663	0.4165530059551186	0.31203273424490874	0.9846280693276819	0.3751801983204059	0.1625347796057996	1.1067451208807557	0.27362639533815164	0.11837273508863136	1.1723033097213744	0.28463568316022253	0.1077537203675616	1.1788705944834772	0.31305615469397113	0.1436092295546745	1.201465437637731	0.05349758067899083	0.19778971810875715	0.7162294476258211	-0.05308285373471233	0.3060131173467136	0.9830244314022443	-0.004928222139947472	0.18557557922825593	1.1621902750473667	0.07113380219247781	0.11808205403363486	1.2128317160730153	0.06852715694619713	0.10675318736428362	1.22268225526066	0.03616187857200864	0.12295443488742022	1.2453650710304325
